<?xml version="1.0" encoding="UTF-8" standalone="no"?> <svg xmlns="http://www.w3.org/2000/svg" viewBox="0 0 270.24 494.51"><g id="Layer_2" data-name="Layer 2"><g id="sort"><path d="M260.24,83.15a10,10,0,0,1-7.4-3.27L207.12,29.59,161.41,79.88a10,10,0,1,1-14.8-13.46L199.73,8a10,10,0,0,1,14.79,0l53.12,58.43a10,10,0,0,1-7.4,16.73Z"/><path d="M207.12,494.51a10,10,0,0,1-10-10V10a10,10,0,0,1,20,0V484.51A10,10,0,0,1,207.12,494.51Z"/><path d="M63.12,489.79a10,10,0,0,1-7.4-3.27L2.6,428.09a10,10,0,1,1,14.8-13.45l45.72,50.29,45.72-50.29a10,10,0,1,1,14.79,13.45L70.52,486.52A10,10,0,0,1,63.12,489.79Z"/><path d="M63.12,494.51a10,10,0,0,1-10-10V10a10,10,0,0,1,20,0V484.51A10,10,0,0,1,63.12,494.51Z"/></g></g></svg>